<svg width="22" height="18" viewBox="0 0 22 18" fill="none" xmlns="http://www.w3.org/2000/svg">
<path d="M11.002 17.25C11.002 17.25 1.62695 12 1.62695 5.62501C1.62714 4.49826 2.01757 3.40635 2.73184 2.53493C3.44611 1.66351 4.44015 1.06636 5.54494 0.845015C6.64974 0.623669 7.79709 0.791788 8.79194 1.32079C9.78679 1.84979 10.5677 2.70702 11.002 3.74673L11.0019 3.74673C11.4362 2.70702 12.2171 1.84979 13.212 1.32079C14.2068 0.79179 15.3542 0.62367 16.459 0.845015C17.5638 1.06636 18.5578 1.66351 19.2721 2.53493C19.9863 3.40635 20.3768 4.49826 20.377 5.62501C20.377 12 11.002 17.25 11.002 17.25Z" stroke="#202025" stroke-width="1.5" stroke-linecap="round" stroke-linejoin="round"/>
</svg>
