<svg width="280" height="56" viewBox="0 0 280 56" fill="none" xmlns="http://www.w3.org/2000/svg">
<path fill-rule="evenodd" clip-rule="evenodd" d="M134.344 49.5619C135.607 52.9443 137.291 53.9364 139.2 53.938C139.517 53.9385 139.822 53.8989 140.152 53.8563L140.236 53.8453C143.23 53.3803 146.856 46.6317 144.605 38.9708C143.799 36.3143 142.723 33.4082 141.048 29.3943C138.982 31.6136 131.422 41.8148 134.344 49.5619ZM141.104 0.10483C143.929 -0.501572 145.546 1.6353 146.054 3.6211C146.656 6.09332 146.087 6.73829 145.936 6.36759C145.427 4.20233 143.949 3.48075 142.749 3.74592C138.777 4.59713 138.436 12.3941 140.348 19.0211C140.795 20.6009 141.449 22.2878 141.9 23.4406C148.869 17.7553 148.967 7.6961 148.261 4.95872C148.123 4.43428 148.276 4.21518 148.442 4.89015C150.989 15.3233 146.627 22.1356 143.169 26.8861C143.348 27.343 143.525 27.7953 143.701 28.2442C144.97 31.4816 146.172 34.5465 147.139 37.9032C147.308 38.5069 147.489 39.1626 147.623 39.7593C149.395 47.6447 147.135 53.9455 141.821 55.2869C141.333 55.4245 140.82 55.4711 140.325 55.4711C137.253 55.4711 133.994 53.0364 132.321 48.7638C128.284 38.2031 135.179 29.7216 139.645 25.7162C139.086 24.333 138.243 21.968 137.644 20.0127C134.809 10.5369 135.964 1.01925 141.104 0.10483ZM129.556 0.309732C127.727 0.309732 126.249 9.89592 125.797 14.475C125.105 21.4915 124.968 26.7953 124.9 32.4576C124.832 38.1198 124.908 46.2773 125.722 51.0246C125.999 52.5872 126.431 54.0283 127.328 54.9898C128.102 55.8319 128.876 56.3114 129.481 55.7714C128.723 55.5914 128.414 54.3888 128.2 52.9472C127.063 46.2173 127.799 32.7576 128.261 25.0061C129.025 12.5079 130.405 2.77391 131.971 2.23233H132.251C131.492 1.21076 130.719 0.369193 129.742 0.309732H129.556ZM157.338 0.309732C155.509 0.309732 154.031 9.89592 153.578 14.475C152.887 21.4915 152.749 26.7953 152.681 32.4576C152.613 38.1198 152.69 46.2773 153.504 51.0246C153.781 52.5872 154.212 54.0283 155.11 54.9898C155.884 55.8319 156.658 56.3114 157.263 55.7714C156.504 55.5914 156.196 54.3888 155.981 52.9472C154.845 46.2173 155.581 32.7576 156.042 25.0061C156.807 12.5079 158.187 2.77391 159.753 2.23233H160.033C159.274 1.21076 158.5 0.369193 157.524 0.309732H157.338ZM165.262 0.309732C163.434 0.309732 161.956 9.89592 161.503 14.475C160.811 21.4915 160.674 26.7953 160.606 32.4576C160.538 38.1198 160.615 46.2773 161.429 51.0246C161.706 52.5872 162.137 54.0283 163.035 54.9898C163.809 55.8319 164.583 56.3114 165.188 55.7714C164.429 55.5914 164.121 54.3888 163.906 52.9472C162.77 46.2173 163.505 32.7576 163.967 25.0061C164.732 12.5079 166.112 2.77391 167.678 2.23233H167.958C167.199 1.21076 166.425 0.369193 165.449 0.309732H165.262ZM8.17317 24.1812H2.4852V26.6411H6.66336V28.7528H2.4852V31.8186H8.39392V34.0583H0V21.9415H8.17317V24.1812ZM16.7117 34.0581H14.2265V21.9413H16.7117V34.0581ZM34.0863 24.3465L32.3192 25.7972C31.4603 24.6096 30.3313 24.016 28.9322 24.016C27.7666 24.016 26.8246 24.3894 26.107 25.1362C25.3889 25.8824 25.0301 26.837 25.0301 28C25.0301 29.187 25.4012 30.1599 26.1435 30.9189C26.8858 31.678 27.8649 32.0573 29.0793 32.0573C30.4909 32.0573 31.5581 31.5559 32.2826 30.5514V29.5604H28.9322V27.4123H34.7673V30.9923C34.2152 31.9716 33.4267 32.7639 32.4019 33.3697C31.3776 33.9756 30.233 34.2788 28.9692 34.2788C27.1404 34.2788 25.6005 33.6761 24.349 32.4703C23.0976 31.265 22.4713 29.7742 22.4713 28C22.4713 26.2252 23.0976 24.7349 24.349 23.5296C25.6005 22.3238 27.1404 21.7211 28.9692 21.7211C31.1537 21.7211 32.859 22.5964 34.0863 24.3465ZM48.4591 34.0583H50.9443V21.9415H48.4591V26.5865H43.0843V21.9415H40.5991V34.0583H43.0843V28.8257H48.4591V34.0583ZM66.532 24.1812H62.6299V34.0583H60.1447V24.1812H56.2609V21.9415H66.532V24.1812ZM74.3344 24.1812H80.0218V21.9415H71.8492V34.0583H80.2431V31.8186H74.3344V28.7528H78.5125V26.6411H74.3344V24.1812ZM94.2484 24.1812H88.5604V26.6411H92.7385V28.7528H88.5604V31.8186H94.4691V34.0583H86.0752V21.9415H94.2484V24.1812ZM110.647 34.2784V21.9415H108.161V29.1567L101.112 21.7213H100.301V34.0582H102.787V26.7884L109.818 34.2784H110.647ZM181.906 25.136C181.169 25.8827 180.801 26.8373 180.801 27.9998C180.801 29.1751 181.166 30.1329 181.896 30.8727C182.627 31.6136 183.563 31.9837 184.703 31.9837C185.82 31.9837 186.75 31.6103 187.492 30.8641C188.235 30.1174 188.606 29.1628 188.606 27.9998C188.606 26.8373 188.235 25.8827 187.492 25.136C186.75 24.3892 185.82 24.0159 184.703 24.0159C183.574 24.0159 182.642 24.3892 181.906 25.136ZM189.269 23.5295C190.533 24.7348 191.164 26.2251 191.164 27.9998C191.164 29.7745 190.533 31.2648 189.269 32.4701C188.004 33.676 186.477 34.2786 184.685 34.2786C182.894 34.2786 181.372 33.676 180.12 32.4701C178.869 31.2648 178.243 29.7745 178.243 27.9998C178.243 26.2251 178.869 24.7348 180.12 23.5295C181.372 22.3236 182.894 21.721 184.685 21.721C186.477 21.721 188.004 22.3236 189.269 23.5295ZM207.286 34.2784V21.9415H204.801V29.1567L197.751 21.7213H196.941V34.0582H199.426V26.7884L206.458 34.2784H207.286ZM221.917 24.1812H216.229V26.6411H220.407V28.7528H216.229V31.8186H222.138V34.0583H213.744V21.9415H221.917V24.1812ZM238.664 27.9998C238.664 26.8373 239.032 25.8827 239.768 25.136C240.504 24.3892 241.437 24.0159 242.566 24.0159C243.682 24.0159 244.613 24.3892 245.354 25.136C246.097 25.8827 246.468 26.8373 246.468 27.9998C246.468 29.1628 246.097 30.1174 245.354 30.8641C244.613 31.6103 243.682 31.9837 242.566 31.9837C241.425 31.9837 240.489 31.6136 239.759 30.8727C239.029 30.1329 238.664 29.1751 238.664 27.9998ZM249.027 27.9998C249.027 26.2251 248.395 24.7348 247.131 23.5295C245.867 22.3236 244.339 21.721 242.547 21.721C240.756 21.721 239.235 22.3236 237.983 23.5295C236.731 24.7348 236.105 26.2251 236.105 27.9998C236.105 29.7745 236.731 31.2648 237.983 32.4701C239.235 33.676 240.756 34.2786 242.547 34.2786C244.339 34.2786 245.867 33.676 247.131 32.4701C248.395 31.2648 249.027 29.7745 249.027 27.9998ZM265.148 21.9415V34.2784H264.32L257.288 26.7884V34.0582H254.803V21.7213H255.613L262.663 29.1567V21.9415H265.148ZM274.091 24.1812H279.779V21.9415H271.606V34.0583H280V31.8186H274.091V28.7528H278.269V26.6411H274.091V24.1812Z" fill="#A1330A"/>
</svg>
