<svg width="24" height="24" viewBox="0 0 24 24" fill="none" xmlns="http://www.w3.org/2000/svg">
<path d="M3.15775 10.3224C2.74905 12.4766 3.14082 14.7059 4.25947 16.5917L3.36617 20.0957L7.40833 19.7406C9.29412 20.8592 11.5234 21.2509 13.6776 20.8422C15.8318 20.4335 17.7627 19.2525 19.1077 17.5209C20.4527 15.7893 21.1194 13.6262 20.9824 11.4379C20.8455 9.24952 19.9144 7.18644 18.3639 5.63603C16.8135 4.08562 14.7504 3.15452 12.5621 3.01758C10.3738 2.88064 8.2107 3.54728 6.47909 4.89231C4.74748 6.23734 3.56644 8.16825 3.15775 10.3224Z" stroke="#202025" stroke-width="1.5" stroke-linecap="round"/>
<path d="M13.9343 16C13.1547 16.0011 12.3825 15.8484 11.6621 15.5505C10.9416 15.2527 10.2869 14.8156 9.73566 14.2643C9.18439 13.7131 8.74731 13.0584 8.44947 12.3379C8.15164 11.6175 7.9989 10.8453 8.00001 10.0657C8.00177 9.51689 8.22112 8.99124 8.60994 8.60399C8.99877 8.21675 9.52531 7.99953 10.0741 8C10.1641 8 10.2525 8.02379 10.3303 8.06897C10.4082 8.11415 10.4727 8.17911 10.5174 8.25726L11.3834 9.77276C11.4356 9.86416 11.4625 9.96781 11.4614 10.0731C11.4603 10.1783 11.4312 10.2814 11.377 10.3717L10.6815 11.5308C11.0393 12.3249 11.6751 12.9607 12.4692 13.3185L13.6283 12.623C13.7186 12.5688 13.8217 12.5397 13.9269 12.5386C14.0322 12.5375 14.1358 12.5644 14.2272 12.6166L15.7427 13.4826C15.8209 13.5273 15.8858 13.5918 15.931 13.6697C15.9762 13.7475 16 13.8359 16 13.9259C15.9984 14.4741 15.7806 14.9994 15.3938 15.3878C15.0069 15.7762 14.4825 15.9962 13.9343 16Z" fill="#202025"/>
</svg>
